<svg id="kity_svg_6" xmlns="http://www.w3.org/2000/svg" xmlns:xlink="http://www.w3.org/1999/xlink" version="1.1" width="870" height="1168" style="background: rgb(251, 251, 251); visibility: visible;" viewBox="0 0 870 1168"><defs id="kity_defs_7"><linearGradient id="kity_linearGradient_17" x1="0" y1="0" x2="0" y2="1"><stop id="kity_stop_18" offset="0" stop-color="rgb(255, 255, 255)"></stop><stop id="kity_stop_19" offset="1" stop-color="rgb(204, 204, 204)"></stop></linearGradient><marker id="kity_marker_2" orient="auto" refX="6" refY="0" viewBox="-7 -7 14 14" markerWidth="7" markerHeight="7" markerUnits="userSpaceOnUse"><path id="kity_path_3" fill="rgb(115, 161, 191)" stroke="none" d="M6,0A6,6,0,1,1,-6,0A6,6,0,1,1,6,0"></path></marker></defs><g id="kity_g_8"><g id="minder1" text-rendering="optimize-speed"><g id="minder_connect_group1"><path id="kity_path_664" fill="none" stroke="rgb(115, 161, 191)" stroke-width="1" d="M61.5,619.5A135,375,0,0,1,196.5,244.5"></path><path id="kity_path_673" fill="none" stroke="rgb(115, 161, 191)" stroke-width="1" d="M61.5,619.5A135,102,0,0,1,196.5,517.5"></path><path id="kity_path_683" fill="none" stroke="rgb(115, 161, 191)" stroke-width="1" d="M61.5,619.5A128,200,0,0,0,189.5,819.5"></path><path id="kity_path_691" fill="none" stroke="rgb(115, 161, 191)" stroke-width="1" d="M61.5,619.5A128,453,0,0,0,189.5,1072.5"></path><path id="kity_path_806" fill="none" stroke="rgb(115, 161, 191)" stroke-width="1" d="M306.5,244.5C330.5,244.5,330.5,83.5,354.5,83.5"></path><path id="kity_path_807" fill="none" stroke="rgb(115, 161, 191)" stroke-width="1" d="M421.5,241.5C442.5,241.5,442.5,190.5,463.5,190.5"></path><path id="kity_path_808" fill="none" stroke="rgb(115, 161, 191)" stroke-width="1" d="M421.5,241.5C441.5,241.5,441.5,241.5,461.5,241.5"></path><path id="kity_path_809" fill="none" stroke="rgb(115, 161, 191)" stroke-width="1" d="M421.5,241.5C441.5,241.5,441.5,293.5,461.5,293.5"></path><path id="kity_path_810" fill="none" stroke="rgb(115, 161, 191)" stroke-width="1" d="M306.5,244.5C329,244.5,329,241.5,351.5,241.5"></path><path id="kity_path_811" fill="none" stroke="rgb(115, 161, 191)" stroke-width="1" d="M418.5,347.5C438.5,347.5,438.5,347.5,458.5,347.5"></path><path id="kity_path_812" fill="none" stroke="rgb(115, 161, 191)" stroke-width="1" d="M306.5,244.5C327.5,244.5,327.5,347.5,348.5,347.5"></path><path id="kity_path_813" fill="none" stroke="rgb(115, 161, 191)" stroke-width="1" d="M399.5,426.5C419.5,426.5,419.5,400.5,439.5,400.5"></path><path id="kity_path_814" fill="none" stroke="rgb(115, 161, 191)" stroke-width="1" d="M399.5,426.5C419.5,426.5,419.5,452.5,439.5,452.5"></path><path id="kity_path_815" fill="none" stroke="rgb(115, 161, 191)" stroke-width="1" d="M307.5,517.5C330.5,517.5,330.5,426.5,353.5,426.5"></path><path id="kity_path_816" fill="none" stroke="rgb(115, 161, 191)" stroke-width="1" d="M426.5,520.5C446.5,520.5,446.5,494.5,466.5,494.5"></path><path id="kity_path_817" fill="none" stroke="rgb(115, 161, 191)" stroke-width="1" d="M426.5,520.5C446.5,520.5,446.5,546.5,466.5,546.5"></path><path id="kity_path_818" fill="none" stroke="rgb(115, 161, 191)" stroke-width="1" d="M307.5,517.5C332,517.5,332,520.5,356.5,520.5"></path><path id="kity_path_819" fill="none" stroke="rgb(115, 161, 191)" stroke-width="1" d="M417.5,608.5C437.5,608.5,437.5,608.5,457.5,608.5"></path><path id="kity_path_820" fill="none" stroke="rgb(115, 161, 191)" stroke-width="1" d="M307.5,517.5C327.5,517.5,327.5,608.5,347.5,608.5"></path><path id="kity_path_839" fill="none" stroke="rgb(115, 161, 191)" stroke-width="1" d="M385.5,715.5C405.5,715.5,405.5,663.5,425.5,663.5"></path><path id="kity_path_840" fill="none" stroke="rgb(115, 161, 191)" stroke-width="1" d="M385.5,715.5C405.5,715.5,405.5,715.5,425.5,715.5"></path><path id="kity_path_841" fill="none" stroke="rgb(115, 161, 191)" stroke-width="1" d="M385.5,715.5C405.5,715.5,405.5,767.5,425.5,767.5"></path><path id="kity_path_842" fill="none" stroke="rgb(115, 161, 191)" stroke-width="1" d="M299.5,819.5C319.5,819.5,319.5,715.5,339.5,715.5"></path><path id="kity_path_843" fill="none" stroke="rgb(115, 161, 191)" stroke-width="1" d="M409.5,845.5C429.5,845.5,429.5,819.5,449.5,819.5"></path><path id="kity_path_844" fill="none" stroke="rgb(115, 161, 191)" stroke-width="1" d="M409.5,845.5C429.5,845.5,429.5,871.5,449.5,871.5"></path><path id="kity_path_845" fill="none" stroke="rgb(115, 161, 191)" stroke-width="1" d="M299.5,819.5C319.5,819.5,319.5,845.5,339.5,845.5"></path><path id="kity_path_846" fill="none" stroke="rgb(115, 161, 191)" stroke-width="1" d="M409.5,923.5C429.5,923.5,429.5,923.5,449.5,923.5"></path><path id="kity_path_847" fill="none" stroke="rgb(115, 161, 191)" stroke-width="1" d="M299.5,819.5C319.5,819.5,319.5,923.5,339.5,923.5"></path><path id="kity_path_855" fill="none" stroke="rgb(115, 161, 191)" stroke-width="1" d="M386.5,1007.5C406.5,1007.5,406.5,981.5,426.5,981.5"></path><path id="kity_path_856" fill="none" stroke="rgb(115, 161, 191)" stroke-width="1" d="M386.5,1007.5C406.5,1007.5,406.5,1033.5,426.5,1033.5"></path><path id="kity_path_857" fill="none" stroke="rgb(115, 161, 191)" stroke-width="1" d="M300.5,1072.5C320.5,1072.5,320.5,1007.5,340.5,1007.5"></path><path id="kity_path_858" fill="none" stroke="rgb(115, 161, 191)" stroke-width="1" d="M410.5,1085.5C430.5,1085.5,430.5,1085.5,450.5,1085.5"></path><path id="kity_path_859" fill="none" stroke="rgb(115, 161, 191)" stroke-width="1" d="M300.5,1072.5C320.5,1072.5,320.5,1085.5,340.5,1085.5"></path><path id="kity_path_860" fill="none" stroke="rgb(115, 161, 191)" stroke-width="1" d="M410.5,1137.5C430.5,1137.5,430.5,1137.5,450.5,1137.5"></path><path id="kity_path_861" fill="none" stroke="rgb(115, 161, 191)" stroke-width="1" d="M300.5,1072.5C320.5,1072.5,320.5,1137.5,340.5,1137.5"></path><path id="kity_path_874" fill="none" stroke="rgb(115, 161, 191)" stroke-width="1" d="M400.5,83.5C420.5,83.5,420.5,31.5,440.5,31.5"></path><path id="kity_path_875" fill="none" stroke="rgb(115, 161, 191)" stroke-width="1" d="M400.5,83.5C420.5,83.5,420.5,83.5,440.5,83.5"></path><path id="kity_path_876" fill="none" stroke="rgb(115, 161, 191)" stroke-width="1" d="M400.5,83.5C420.5,83.5,420.5,135.5,440.5,135.5"></path></g><g id="minder_node1"><path id="node_outline1" fill="rgb(115, 161, 191)" stroke="rgb(115, 161, 191)" d="M25.5,599.5h72a5,5,0,0,1,5,5v30a5,5,0,0,1,-5,5h-72a5,5,0,0,1,-5,-5v-30a5,5,0,0,1,5,-5z" stroke-width="3"></path><g id="node_text1" fill="white"><text id="kity_text_22" text-rendering="inherit" font-size="16" dy=".8em" y="611.5" x="44.5">保险</text></g></g><g id="kity_g_14" display="none"><path id="kity_path_15" fill="rgba(0, 92, 153, 0.5)" stroke="none" d="M222.5,743.5h108v20h-108z"></path><path id="kity_path_16" fill="none" stroke="rgb(0, 76, 128)" d="M222.5,743.5L330.5,743.5" stroke-width="1"></path></g><g id="minder_node2" opacity="1"><g id="node_expander1" style="cursor: pointer;"><path id="kity_path_36" fill="white" stroke="gray" d="M197.5,244.5A6,6,0,1,1,185.5,244.5A6,6,0,1,1,197.5,244.5"></path><path id="kity_path_37" fill="none" stroke="gray" d="M187,244.5L196,244.5"></path></g><path id="node_outline2" fill="rgb(238, 243, 246)" stroke="rgb(115, 161, 191)" d="M201.5,228.5h102a3,3,0,0,1,3,3v26a3,3,0,0,1,-3,3h-102a3,3,0,0,1,-3,-3v-26a3,3,0,0,1,3,-3z" stroke-width="1"></path><g id="node_text2" fill="black"><text id="kity_text_33" text-rendering="inherit" font-size="14" dy=".8em" y="237.5" x="243.5">医疗险</text></g><g id="node_priority1"><path id="kity_path_114" fill="#840023" stroke="none" d="M219,248c0,3.866,3.134,7,7,7h6c3.866,0,7,-3.134,7,-7V242H219V248z"></path><path id="kity_path_115" fill="#FF1200" stroke="none" d="M239,245c0,3.866,-3.134,7,-7,7H226c-3.866,0,-7,-3.134,-7,-7V242c0,-3.866,3.134,-7,7,-7h6c3.866,0,7,3.134,7,7V245z" opacity="0.8"></path><text id="kity_text_116" text-rendering="geometricPrecision" x="228" y="244.5" text-anchor="middle" font-style="italic" font-size="12" fill="white" dy="4">1</text></g></g><g id="minder_node3" opacity="1"><g id="node_expander2" style="cursor: pointer;"><path id="kity_path_44" fill="white" stroke="gray" d="M197.5,517.5A6,6,0,1,1,185.5,517.5A6,6,0,1,1,197.5,517.5"></path><path id="kity_path_45" fill="none" stroke="gray" d="M187,517.5L196,517.5"></path></g><path id="node_outline3" fill="rgb(238, 243, 246)" stroke="rgb(115, 161, 191)" d="M201.5,501.5h103a3,3,0,0,1,3,3v26a3,3,0,0,1,-3,3h-103a3,3,0,0,1,-3,-3v-26a3,3,0,0,1,3,-3z" stroke-width="1"></path><g id="node_text3" fill="black"><text id="kity_text_41" text-rendering="inherit" font-size="14" dy=".8em" y="510.5" x="243.5">重疾险</text></g><g id="node_priority2"><path id="kity_path_578" fill="#01467F" stroke="none" d="M219,521c0,3.866,3.134,7,7,7h6c3.866,0,7,-3.134,7,-7V515H219V521z"></path><path id="kity_path_579" fill="#0074FF" stroke="none" d="M239,518c0,3.866,-3.134,7,-7,7H226c-3.866,0,-7,-3.134,-7,-7V515c0,-3.866,3.134,-7,7,-7h6c3.866,0,7,3.134,7,7V518z" opacity="0.8"></path><text id="kity_text_580" text-rendering="geometricPrecision" x="228" y="517.5" text-anchor="middle" font-style="italic" font-size="12" fill="white" dy="4">2</text></g></g><g id="minder_node28" opacity="1"><g id="node_expander27" style="cursor: pointer;"><path id="kity_path_373" fill="white" stroke="gray" d="M190.5,819.5A6,6,0,1,1,178.5,819.5A6,6,0,1,1,190.5,819.5"></path><path id="kity_path_374" fill="none" stroke="gray" d="M180,819.5L189,819.5"></path></g><path id="node_outline28" fill="rgb(238, 243, 246)" stroke="rgb(115, 161, 191)" d="M194.5,803.5h102a3,3,0,0,1,3,3v26a3,3,0,0,1,-3,3h-102a3,3,0,0,1,-3,-3v-26a3,3,0,0,1,3,-3z" stroke-width="1"></path><g id="node_text28" fill="black"><text id="kity_text_370" text-rendering="inherit" font-size="14" dy=".8em" y="812.5" x="236.5">防癌险</text></g><g id="node_priority3"><path id="kity_path_583" fill="#006300" stroke="none" d="M212,823c0,3.866,3.134,7,7,7h6c3.866,0,7,-3.134,7,-7V817H212V823z"></path><path id="kity_path_584" fill="#00AF00" stroke="none" d="M232,820c0,3.866,-3.134,7,-7,7H219c-3.866,0,-7,-3.134,-7,-7V817c0,-3.866,3.134,-7,7,-7h6c3.866,0,7,3.134,7,7V820z" opacity="0.8"></path><text id="kity_text_585" text-rendering="geometricPrecision" x="221" y="819.5" text-anchor="middle" font-style="italic" font-size="12" fill="white" dy="4">3</text></g></g><g id="minder_node39" opacity="1"><g id="node_expander38" style="cursor: pointer;"><path id="kity_path_474" fill="white" stroke="gray" d="M190.5,1072.5A6,6,0,1,1,178.5,1072.5A6,6,0,1,1,190.5,1072.5"></path><path id="kity_path_475" fill="none" stroke="gray" d="M180,1072.5L189,1072.5"></path></g><path id="node_outline39" fill="rgb(238, 243, 246)" stroke="rgb(115, 161, 191)" d="M194.5,1056.5h103a3,3,0,0,1,3,3v26a3,3,0,0,1,-3,3h-103a3,3,0,0,1,-3,-3v-26a3,3,0,0,1,3,-3z" stroke-width="1"></path><g id="node_text39" fill="black"><text id="kity_text_471" text-rendering="inherit" font-size="14" dy=".8em" y="1065.5" x="236.5">意外险</text></g><g id="node_priority4"><path id="kity_path_588" fill="#B25000" stroke="none" d="M212,1076c0,3.866,3.134,7,7,7h6c3.866,0,7,-3.134,7,-7V1070H212V1076z"></path><path id="kity_path_589" fill="#FF962E" stroke="none" d="M232,1073c0,3.866,-3.134,7,-7,7H219c-3.866,0,-7,-3.134,-7,-7V1070c0,-3.866,3.134,-7,7,-7h6c3.866,0,7,3.134,7,7V1073z" opacity="0.8"></path><text id="kity_text_590" text-rendering="geometricPrecision" x="221" y="1072.5" text-anchor="middle" font-style="italic" font-size="12" fill="white" dy="4">4</text></g></g><g id="kity_g_12" display="none"><path id="kity_path_13" fill="none" stroke="rgb(66, 94, 112)" d="M225.5,706.5h102a3,3,0,0,1,3,3v26a3,3,0,0,1,-3,3h-102a3,3,0,0,1,-3,-3v-26a3,3,0,0,1,3,-3z" stroke-width="5"></path></g><g id="minder_node17" opacity="1"><g id="node_expander16" style="cursor: pointer;"><path id="kity_path_189" fill="white" stroke="gray" d="M354.5,83.5A6,6,0,1,1,342.5,83.5A6,6,0,1,1,354.5,83.5"></path><path id="kity_path_190" fill="none" stroke="gray" d="M344,83.5L353,83.5"></path></g><path id="node_outline17" fill="none" stroke="rgb(57, 80, 96)" d="M359.5,72.5h36a5,5,0,0,1,5,5v12a5,5,0,0,1,-5,5h-36a5,5,0,0,1,-5,-5v-12a5,5,0,0,1,5,-5z" stroke-width="3"></path><g id="node_text17" fill="black"><text id="kity_text_186" text-rendering="inherit" font-size="12" dy=".8em" y="77.5" x="364.5">特点</text></g></g><g id="minder_node19" opacity="1"><g id="node_expander18" style="cursor: pointer;" display="none"><path id="kity_path_209" fill="white" stroke="gray" d="M463.5,190.5A6,6,0,1,1,451.5,190.5A6,6,0,1,1,463.5,190.5"></path><path id="kity_path_210" fill="none" stroke="gray"></path></g><path id="node_outline19" fill="none" stroke="none" d="M468.5,179.5h96a5,5,0,0,1,5,5v12a5,5,0,0,1,-5,5h-96a5,5,0,0,1,-5,-5v-12a5,5,0,0,1,5,-5z" stroke-width="3"></path><g id="node_text19" fill="black"><text id="kity_text_206" text-rendering="inherit" font-size="12" dy=".8em" y="184.5" x="473.5">支付宝的好医保</text></g></g><g id="minder_node20" opacity="1"><g id="node_expander19" style="cursor: pointer;" display="none"><path id="kity_path_217" fill="white" stroke="gray" d="M461.5,241.5A6,6,0,1,1,449.5,241.5A6,6,0,1,1,461.5,241.5"></path><path id="kity_path_218" fill="none" stroke="gray"></path></g><path id="node_outline20" fill="none" stroke="none" d="M466.5,230.5h84a5,5,0,0,1,5,5v12a5,5,0,0,1,-5,5h-84a5,5,0,0,1,-5,-5v-12a5,5,0,0,1,5,-5z" stroke-width="3"></path><g id="node_text20" fill="black"><text id="kity_text_214" text-rendering="inherit" font-size="12" dy=".8em" y="235.5" x="471.5">微信的微医保</text></g></g><g id="minder_node21" opacity="1"><g id="node_expander20" style="cursor: pointer;" display="none"><path id="kity_path_225" fill="white" stroke="gray" d="M461.5,293.5A6,6,0,1,1,449.5,293.5A6,6,0,1,1,461.5,293.5"></path><path id="kity_path_226" fill="none" stroke="gray"></path></g><path id="node_outline21" fill="none" stroke="none" d="M466.5,282.5h79a5,5,0,0,1,5,5v12a5,5,0,0,1,-5,5h-79a5,5,0,0,1,-5,-5v-12a5,5,0,0,1,5,-5z" stroke-width="3"></path><g id="node_text21" fill="black"><text id="kity_text_222" text-rendering="inherit" font-size="12" dy=".8em" y="287.5" x="471.5">平安的e生保</text></g></g><g id="minder_node18" opacity="1"><g id="node_expander17" style="cursor: pointer;"><path id="kity_path_201" fill="white" stroke="gray" d="M351.5,241.5A6,6,0,1,1,339.5,241.5A6,6,0,1,1,351.5,241.5"></path><path id="kity_path_202" fill="none" stroke="gray" d="M341,241.5L350,241.5"></path></g><path id="node_outline18" fill="none" stroke="none" d="M356.5,230.5h60a5,5,0,0,1,5,5v12a5,5,0,0,1,-5,5h-60a5,5,0,0,1,-5,-5v-12a5,5,0,0,1,5,-5z" stroke-width="3"></path><g id="node_text18" fill="black"><text id="kity_text_198" text-rendering="inherit" font-size="12" dy=".8em" y="235.5" x="361.5">推荐产品</text></g></g><g id="minder_node32"><g id="node_expander31" style="cursor: pointer;" display="none"><path id="kity_path_415" fill="white" stroke="gray" d="M458.5,347.5A6,6,0,1,1,446.5,347.5A6,6,0,1,1,458.5,347.5"></path><path id="kity_path_416" fill="none" stroke="gray"></path></g><path id="node_outline32" fill="none" stroke="none" d="M463.5,336.5h120a5,5,0,0,1,5,5v12a5,5,0,0,1,-5,5h-120a5,5,0,0,1,-5,-5v-12a5,5,0,0,1,5,-5z" stroke-width="3"></path><g id="node_text32" fill="black"><text id="kity_text_412" text-rendering="inherit" font-size="12" dy=".8em" y="341.5" x="468.5">经济宽裕下均可配置</text></g></g><g id="minder_node31" opacity="1"><g id="node_expander30" style="cursor: pointer;"><path id="kity_path_407" fill="white" stroke="gray" d="M348.5,347.5A6,6,0,1,1,336.5,347.5A6,6,0,1,1,348.5,347.5"></path><path id="kity_path_408" fill="none" stroke="gray" d="M338,347.5L347,347.5"></path></g><path id="node_outline31" fill="none" stroke="none" d="M353.5,336.5h60a5,5,0,0,1,5,5v12a5,5,0,0,1,-5,5h-60a5,5,0,0,1,-5,-5v-12a5,5,0,0,1,5,-5z" stroke-width="3"></path><g id="node_text31" fill="black"><text id="kity_text_404" text-rendering="inherit" font-size="12" dy=".8em" y="341.5" x="358.5">推荐人群</text></g></g><g id="minder_node7" opacity="1"><g id="node_expander6" style="cursor: pointer;" display="none"><path id="kity_path_76" fill="white" stroke="gray" d="M439.5,400.5A6,6,0,1,1,427.5,400.5A6,6,0,1,1,439.5,400.5"></path><path id="kity_path_77" fill="none" stroke="gray"></path></g><path id="node_outline7" fill="none" stroke="none" d="M444.5,389.5h144a5,5,0,0,1,5,5v12a5,5,0,0,1,-5,5h-144a5,5,0,0,1,-5,-5v-12a5,5,0,0,1,5,-5z" stroke-width="3"></path><g id="node_text7" fill="black"><text id="kity_text_73" text-rendering="inherit" font-size="12" dy=".8em" y="394.5" x="449.5">给付型保险，按保额给钱</text></g></g><g id="minder_node22" opacity="1"><g id="node_expander21" style="cursor: pointer;" display="none"><path id="kity_path_233" fill="white" stroke="gray" d="M439.5,452.5A6,6,0,1,1,427.5,452.5A6,6,0,1,1,439.5,452.5"></path><path id="kity_path_234" fill="none" stroke="gray"></path></g><path id="node_outline22" fill="none" stroke="none" d="M444.5,441.5h96a5,5,0,0,1,5,5v12a5,5,0,0,1,-5,5h-96a5,5,0,0,1,-5,-5v-12a5,5,0,0,1,5,-5z" stroke-width="3"></path><g id="node_text22" fill="black"><text id="kity_text_230" text-rendering="inherit" font-size="12" dy=".8em" y="446.5" x="449.5">保额普遍几十万</text></g></g><g id="minder_node24" opacity="1"><g id="node_expander23" style="cursor: pointer;"><path id="kity_path_333" fill="white" stroke="gray" d="M353.5,426.5A6,6,0,1,1,341.5,426.5A6,6,0,1,1,353.5,426.5"></path><path id="kity_path_334" fill="none" stroke="gray" d="M343,426.5L352,426.5"></path></g><path id="node_outline24" fill="none" stroke="none" d="M358.5,415.5h36a5,5,0,0,1,5,5v12a5,5,0,0,1,-5,5h-36a5,5,0,0,1,-5,-5v-12a5,5,0,0,1,5,-5z" stroke-width="3"></path><g id="node_text24" fill="black"><text id="kity_text_330" text-rendering="inherit" font-size="12" dy=".8em" y="420.5" x="363.5">特点</text></g></g><g id="minder_node26"><g id="node_expander25" style="cursor: pointer;" display="none"><path id="kity_path_349" fill="white" stroke="gray" d="M466.5,494.5A6,6,0,1,1,454.5,494.5A6,6,0,1,1,466.5,494.5"></path><path id="kity_path_350" fill="none" stroke="gray"></path></g><path id="node_outline26" fill="none" stroke="none" d="M471.5,483.5h96a5,5,0,0,1,5,5v12a5,5,0,0,1,-5,5h-96a5,5,0,0,1,-5,-5v-12a5,5,0,0,1,5,-5z" stroke-width="3"></path><g id="node_text26" fill="black"><text id="kity_text_346" text-rendering="inherit" font-size="12" dy=".8em" y="488.5" x="476.5">百年人寿康慧保</text></g></g><g id="minder_node27"><g id="node_expander26" style="cursor: pointer;" display="none"><path id="kity_path_361" fill="white" stroke="gray" d="M466.5,546.5A6,6,0,1,1,454.5,546.5A6,6,0,1,1,466.5,546.5"></path><path id="kity_path_362" fill="none" stroke="gray"></path></g><path id="node_outline27" fill="none" stroke="none" d="M471.5,535.5h108a5,5,0,0,1,5,5v12a5,5,0,0,1,-5,5h-108a5,5,0,0,1,-5,-5v-12a5,5,0,0,1,5,-5z" stroke-width="3"></path><g id="node_text27" fill="black"><text id="kity_text_358" text-rendering="inherit" font-size="12" dy=".8em" y="540.5" x="476.5">弘康人寿健康一生</text></g></g><g id="minder_node25" opacity="1"><g id="node_expander24" style="cursor: pointer;"><path id="kity_path_341" fill="white" stroke="gray" d="M356.5,520.5A6,6,0,1,1,344.5,520.5A6,6,0,1,1,356.5,520.5"></path><path id="kity_path_342" fill="none" stroke="gray" d="M346,520.5L355,520.5"></path></g><path id="node_outline25" fill="none" stroke="none" d="M361.5,509.5h60a5,5,0,0,1,5,5v12a5,5,0,0,1,-5,5h-60a5,5,0,0,1,-5,-5v-12a5,5,0,0,1,5,-5z" stroke-width="3"></path><g id="node_text25" fill="black"><text id="kity_text_338" text-rendering="inherit" font-size="12" dy=".8em" y="514.5" x="366.5">推荐产品</text></g></g><g id="minder_node30"><g id="node_expander29" style="cursor: pointer;" display="none"><path id="kity_path_396" fill="white" stroke="gray" d="M457.5,608.5A6,6,0,1,1,445.5,608.5A6,6,0,1,1,457.5,608.5"></path><path id="kity_path_397" fill="none" stroke="gray"></path></g><path id="node_outline30" fill="none" stroke="none" d="M462.5,597.5h383a5,5,0,0,1,5,5v12a5,5,0,0,1,-5,5h-383a5,5,0,0,1,-5,-5v-12a5,5,0,0,1,5,-5z" stroke-width="3"></path><g id="node_text30" fill="black"><text id="kity_text_393" text-rendering="inherit" font-size="12" dy=".8em" y="602.5" x="467.5">经济不宽裕下家庭收入主力先配置，老人不推荐买（保费高、保额低）</text></g><g id="kity_g_398" style="cursor: pointer;" display="none"><path id="kity_path_399" fill="none" stroke="none" d="M524,600h12a2,2,0,0,1,2,2v13a2,2,0,0,1,-2,2h-12a2,2,0,0,1,-2,-2v-13a2,2,0,0,1,2,-2z"></path><path id="kity_path_400" fill="black" stroke="none" d="M533,611H527V610h6L533,611L533,611zM533,609H527V608h6V609zM533,607H527V606h6V607zM532.5,613H526V604h8v7.5M533,614l2,-2V603H525v11"></path></g></g><g id="minder_node29"><g id="node_expander28" style="cursor: pointer;"><path id="kity_path_388" fill="white" stroke="gray" d="M347.5,608.5A6,6,0,1,1,335.5,608.5A6,6,0,1,1,347.5,608.5"></path><path id="kity_path_389" fill="none" stroke="gray" d="M337,608.5L346,608.5"></path></g><path id="node_outline29" fill="none" stroke="none" d="M352.5,597.5h60a5,5,0,0,1,5,5v12a5,5,0,0,1,-5,5h-60a5,5,0,0,1,-5,-5v-12a5,5,0,0,1,5,-5z" stroke-width="3"></path><g id="node_text29" fill="black"><text id="kity_text_385" text-rendering="inherit" font-size="12" dy=".8em" y="602.5" x="357.5">推荐人群</text></g></g><g id="minder_node34"><g id="node_expander33" style="cursor: pointer;" display="none"><path id="kity_path_434" fill="white" stroke="gray" d="M425.5,663.5A6,6,0,1,1,413.5,663.5A6,6,0,1,1,425.5,663.5"></path><path id="kity_path_435" fill="none" stroke="gray"></path></g><path id="node_outline34" fill="none" stroke="none" d="M430.5,652.5h48a5,5,0,0,1,5,5v12a5,5,0,0,1,-5,5h-48a5,5,0,0,1,-5,-5v-12a5,5,0,0,1,5,-5z" stroke-width="3"></path><g id="node_text34" fill="black"><text id="kity_text_431" text-rendering="inherit" font-size="12" dy=".8em" y="657.5" x="435.5">保费低</text></g></g><g id="minder_node35"><g id="node_expander34" style="cursor: pointer;" display="none"><path id="kity_path_442" fill="white" stroke="gray" d="M425.5,715.5A6,6,0,1,1,413.5,715.5A6,6,0,1,1,425.5,715.5"></path><path id="kity_path_443" fill="none" stroke="gray"></path></g><path id="node_outline35" fill="none" stroke="none" d="M430.5,704.5h47a5,5,0,0,1,5,5v12a5,5,0,0,1,-5,5h-47a5,5,0,0,1,-5,-5v-12a5,5,0,0,1,5,-5z" stroke-width="3"></path><g id="node_text35" fill="black"><text id="kity_text_439" text-rendering="inherit" font-size="12" dy=".8em" y="709.5" x="435.5">门槛低</text></g></g><g id="minder_node36"><g id="node_expander35" style="cursor: pointer;" display="none"><path id="kity_path_450" fill="white" stroke="gray" d="M425.5,767.5A6,6,0,1,1,413.5,767.5A6,6,0,1,1,425.5,767.5"></path><path id="kity_path_451" fill="none" stroke="gray"></path></g><path id="node_outline36" fill="none" stroke="none" d="M430.5,756.5h72a5,5,0,0,1,5,5v12a5,5,0,0,1,-5,5h-72a5,5,0,0,1,-5,-5v-12a5,5,0,0,1,5,-5z" stroke-width="3"></path><g id="node_text36" fill="black"><text id="kity_text_447" text-rendering="inherit" font-size="12" dy=".8em" y="761.5" x="435.5">带病可参保</text></g></g><g id="minder_node33"><g id="node_expander32" style="cursor: pointer;"><path id="kity_path_426" fill="white" stroke="gray" d="M339.5,715.5A6,6,0,1,1,327.5,715.5A6,6,0,1,1,339.5,715.5"></path><path id="kity_path_427" fill="none" stroke="gray" d="M329,715.5L338,715.5"></path></g><path id="node_outline33" fill="none" stroke="none" d="M344.5,704.5h36a5,5,0,0,1,5,5v12a5,5,0,0,1,-5,5h-36a5,5,0,0,1,-5,-5v-12a5,5,0,0,1,5,-5z" stroke-width="3"></path><g id="node_text33" fill="black"><text id="kity_text_423" text-rendering="inherit" font-size="12" dy=".8em" y="709.5" x="349.5">特点</text></g></g><g id="minder_node46"><g id="node_expander45" style="cursor: pointer;" display="none"><path id="kity_path_530" fill="white" stroke="gray" d="M449.5,819.5A6,6,0,1,1,437.5,819.5A6,6,0,1,1,449.5,819.5"></path><path id="kity_path_531" fill="none" stroke="gray"></path></g><path id="node_outline46" fill="none" stroke="none" d="M454.5,808.5h120a5,5,0,0,1,5,5v12a5,5,0,0,1,-5,5h-120a5,5,0,0,1,-5,-5v-12a5,5,0,0,1,5,-5z" stroke-width="3"></path><g id="node_text46" fill="black"><text id="kity_text_527" text-rendering="inherit" font-size="12" dy=".8em" y="813.5" x="459.5">安邦延年防癌疾病险</text></g></g><g id="minder_node47"><g id="node_expander46" style="cursor: pointer;" display="none"><path id="kity_path_538" fill="white" stroke="gray" d="M449.5,871.5A6,6,0,1,1,437.5,871.5A6,6,0,1,1,449.5,871.5"></path><path id="kity_path_539" fill="none" stroke="gray"></path></g><path id="node_outline47" fill="none" stroke="none" d="M454.5,860.5h96a5,5,0,0,1,5,5v12a5,5,0,0,1,-5,5h-96a5,5,0,0,1,-5,-5v-12a5,5,0,0,1,5,-5z" stroke-width="3"></path><g id="node_text47" fill="black"><text id="kity_text_535" text-rendering="inherit" font-size="12" dy=".8em" y="865.5" x="459.5">德华安顾孝亲保</text></g></g><g id="minder_node45"><g id="node_expander44" style="cursor: pointer;"><path id="kity_path_522" fill="white" stroke="gray" d="M339.5,845.5A6,6,0,1,1,327.5,845.5A6,6,0,1,1,339.5,845.5"></path><path id="kity_path_523" fill="none" stroke="gray" d="M329,845.5L338,845.5"></path></g><path id="node_outline45" fill="none" stroke="none" d="M344.5,834.5h60a5,5,0,0,1,5,5v12a5,5,0,0,1,-5,5h-60a5,5,0,0,1,-5,-5v-12a5,5,0,0,1,5,-5z" stroke-width="3"></path><g id="node_text45" fill="black"><text id="kity_text_519" text-rendering="inherit" font-size="12" dy=".8em" y="839.5" x="349.5">推荐产品</text></g></g><g id="minder_node38"><g id="node_expander37" style="cursor: pointer;" display="none"><path id="kity_path_466" fill="white" stroke="gray" d="M449.5,923.5A6,6,0,1,1,437.5,923.5A6,6,0,1,1,449.5,923.5"></path><path id="kity_path_467" fill="none" stroke="gray"></path></g><path id="node_outline38" fill="none" stroke="none" d="M454.5,912.5h47a5,5,0,0,1,5,5v12a5,5,0,0,1,-5,5h-47a5,5,0,0,1,-5,-5v-12a5,5,0,0,1,5,-5z" stroke-width="3"></path><g id="node_text38" fill="black"><text id="kity_text_463" text-rendering="inherit" font-size="12" dy=".8em" y="917.5" x="459.5">中老年</text></g></g><g id="minder_node37"><g id="node_expander36" style="cursor: pointer;"><path id="kity_path_458" fill="white" stroke="gray" d="M339.5,923.5A6,6,0,1,1,327.5,923.5A6,6,0,1,1,339.5,923.5"></path><path id="kity_path_459" fill="none" stroke="gray" d="M329,923.5L338,923.5"></path></g><path id="node_outline37" fill="none" stroke="none" d="M344.5,912.5h60a5,5,0,0,1,5,5v12a5,5,0,0,1,-5,5h-60a5,5,0,0,1,-5,-5v-12a5,5,0,0,1,5,-5z" stroke-width="3"></path><g id="node_text37" fill="black"><text id="kity_text_455" text-rendering="inherit" font-size="12" dy=".8em" y="917.5" x="349.5">推荐人群</text></g></g><g id="minder_node41"><g id="node_expander40" style="cursor: pointer;" display="none"><path id="kity_path_490" fill="white" stroke="gray" d="M426.5,981.5A6,6,0,1,1,414.5,981.5A6,6,0,1,1,426.5,981.5"></path><path id="kity_path_491" fill="none" stroke="gray"></path></g><path id="node_outline41" fill="none" stroke="none" d="M431.5,970.5h48a5,5,0,0,1,5,5v12a5,5,0,0,1,-5,5h-48a5,5,0,0,1,-5,-5v-12a5,5,0,0,1,5,-5z" stroke-width="3"></path><g id="node_text41" fill="black"><text id="kity_text_487" text-rendering="inherit" font-size="12" dy=".8em" y="975.5" x="436.5">保费低</text></g></g><g id="minder_node42"><g id="node_expander41" style="cursor: pointer;" display="none"><path id="kity_path_498" fill="white" stroke="gray" d="M426.5,1033.5A6,6,0,1,1,414.5,1033.5A6,6,0,1,1,426.5,1033.5"></path><path id="kity_path_499" fill="none" stroke="gray"></path></g><path id="node_outline42" fill="none" stroke="none" d="M431.5,1022.5h47a5,5,0,0,1,5,5v12a5,5,0,0,1,-5,5h-47a5,5,0,0,1,-5,-5v-12a5,5,0,0,1,5,-5z" stroke-width="3"></path><g id="node_text42" fill="black"><text id="kity_text_495" text-rendering="inherit" font-size="12" dy=".8em" y="1027.5" x="436.5">门槛低</text></g></g><g id="minder_node40"><g id="node_expander39" style="cursor: pointer;"><path id="kity_path_482" fill="white" stroke="gray" d="M340.5,1007.5A6,6,0,1,1,328.5,1007.5A6,6,0,1,1,340.5,1007.5"></path><path id="kity_path_483" fill="none" stroke="gray" d="M330,1007.5L339,1007.5"></path></g><path id="node_outline40" fill="none" stroke="none" d="M345.5,996.5h36a5,5,0,0,1,5,5v12a5,5,0,0,1,-5,5h-36a5,5,0,0,1,-5,-5v-12a5,5,0,0,1,5,-5z" stroke-width="3"></path><g id="node_text40" fill="black"><text id="kity_text_479" text-rendering="inherit" font-size="12" dy=".8em" y="1001.5" x="350.5">特点</text></g></g><g id="minder_node50"><g id="node_expander49" style="cursor: pointer;" display="none"><path id="kity_path_562" fill="white" stroke="gray" d="M450.5,1085.5A6,6,0,1,1,438.5,1085.5A6,6,0,1,1,450.5,1085.5"></path><path id="kity_path_563" fill="none" stroke="gray"></path></g><path id="node_outline50" fill="none" stroke="none" d="M455.5,1074.5h120a5,5,0,0,1,5,5v12a5,5,0,0,1,-5,5h-120a5,5,0,0,1,-5,-5v-12a5,5,0,0,1,5,-5z" stroke-width="3"></path><g id="node_text50" fill="black"><text id="kity_text_559" text-rendering="inherit" font-size="12" dy=".8em" y="1079.5" x="460.5">平安父母综合意外险</text></g></g><g id="minder_node49"><g id="node_expander48" style="cursor: pointer;"><path id="kity_path_554" fill="white" stroke="gray" d="M340.5,1085.5A6,6,0,1,1,328.5,1085.5A6,6,0,1,1,340.5,1085.5"></path><path id="kity_path_555" fill="none" stroke="gray" d="M330,1085.5L339,1085.5"></path></g><path id="node_outline49" fill="none" stroke="none" d="M345.5,1074.5h60a5,5,0,0,1,5,5v12a5,5,0,0,1,-5,5h-60a5,5,0,0,1,-5,-5v-12a5,5,0,0,1,5,-5z" stroke-width="3"></path><g id="node_text49" fill="black"><text id="kity_text_551" text-rendering="inherit" font-size="12" dy=".8em" y="1079.5" x="350.5">推荐产品</text></g></g><g id="minder_node44"><g id="node_expander43" style="cursor: pointer;" display="none"><path id="kity_path_514" fill="white" stroke="gray" d="M450.5,1137.5A6,6,0,1,1,438.5,1137.5A6,6,0,1,1,450.5,1137.5"></path><path id="kity_path_515" fill="none" stroke="gray"></path></g><path id="node_outline44" fill="none" stroke="none" d="M455.5,1126.5h47a5,5,0,0,1,5,5v12a5,5,0,0,1,-5,5h-47a5,5,0,0,1,-5,-5v-12a5,5,0,0,1,5,-5z" stroke-width="3"></path><g id="node_text44" fill="black"><text id="kity_text_511" text-rendering="inherit" font-size="12" dy=".8em" y="1131.5" x="460.5">中老年</text></g></g><g id="minder_node43"><g id="node_expander42" style="cursor: pointer;"><path id="kity_path_506" fill="white" stroke="gray" d="M340.5,1137.5A6,6,0,1,1,328.5,1137.5A6,6,0,1,1,340.5,1137.5"></path><path id="kity_path_507" fill="none" stroke="gray" d="M330,1137.5L339,1137.5"></path></g><path id="node_outline43" fill="none" stroke="none" d="M345.5,1126.5h60a5,5,0,0,1,5,5v12a5,5,0,0,1,-5,5h-60a5,5,0,0,1,-5,-5v-12a5,5,0,0,1,5,-5z" stroke-width="3"></path><g id="node_text43" fill="black"><text id="kity_text_503" text-rendering="inherit" font-size="12" dy=".8em" y="1131.5" x="350.5">推荐人群</text></g></g><g id="minder_node5" opacity="1"><g id="node_expander4" style="cursor: pointer;" display="none"><path id="kity_path_60" fill="white" stroke="gray" d="M440.5,31.5A6,6,0,1,1,428.5,31.5A6,6,0,1,1,440.5,31.5"></path><path id="kity_path_61" fill="none" stroke="gray"></path></g><path id="node_outline5" fill="none" stroke="none" d="M445.5,20.5h127a5,5,0,0,1,5,5v12a5,5,0,0,1,-5,5h-127a5,5,0,0,1,-5,-5v-12a5,5,0,0,1,5,-5z" stroke-width="3"></path><g id="node_text5" fill="black"><text id="kity_text_57" text-rendering="inherit" font-size="12" dy=".8em" y="25.5" x="450.5">有免赔额，大多是1万</text></g></g><g id="minder_node4" opacity="1"><g id="node_expander3" style="cursor: pointer;" display="none"><path id="kity_path_52" fill="white" stroke="gray" d="M440.5,83.5A6,6,0,1,1,428.5,83.5A6,6,0,1,1,440.5,83.5"></path><path id="kity_path_53" fill="none" stroke="gray"></path></g><path id="node_outline4" fill="none" stroke="none" d="M445.5,72.5h168a5,5,0,0,1,5,5v12a5,5,0,0,1,-5,5h-168a5,5,0,0,1,-5,-5v-12a5,5,0,0,1,5,-5z" stroke-width="3"></path><g id="node_text4" fill="black"><text id="kity_text_49" text-rendering="inherit" font-size="12" dy=".8em" y="77.5" x="450.5">报销型保险，看医院发票给钱</text></g></g><g id="minder_node23"><g id="node_expander22" style="cursor: pointer;" display="none"><path id="kity_path_325" fill="white" stroke="gray" d="M440.5,135.5A6,6,0,1,1,428.5,135.5A6,6,0,1,1,440.5,135.5"></path><path id="kity_path_326" fill="none" stroke="gray"></path></g><path id="node_outline23" fill="none" stroke="none" d="M445.5,124.5h96a5,5,0,0,1,5,5v12a5,5,0,0,1,-5,5h-96a5,5,0,0,1,-5,-5v-12a5,5,0,0,1,5,-5z" stroke-width="3"></path><g id="node_text23" fill="black"><text id="kity_text_322" text-rendering="inherit" font-size="12" dy=".8em" y="129.5" x="450.5">保额普遍几百万</text></g></g></g></g></svg>